PathFileType	4	(X/Y/Z)	s06c0403.trc
DataRate	CameraRate	NumFrames	NumMarkers	Units	OrigDataRate	OrigDataStartFrame	OrigNumFrames
200	200	5	48	mm	200	1000	2000
Frame#	Time	racr			lacr			c7			jug			rlel			rdr			llel			ldr			s2			lic			ric			lasi			rasi			rpsi			lpsi			rgt			lgt			rth1			rth2			rth3			rth4			rlfc			rmfc			rsh1			rsh2			rsh3			rsh4			rlmal			rcal			rtoe			rmt5			lth1			lth2			lth4			lth3			llfc			lmfc			llmal			lcal			lmt5			lsh1			lsh2			lsh3			lsh4			ltoe			SBIKE			LBIKE			RBIKE			
		X1	Y1	Z1	X2	Y2	Z2	X3	Y3	Z3	X4	Y4	Z4	X5	Y5	Z5	X6	Y6	Z6	X7	Y7	Z7	X8	Y8	Z8	X9	Y9	Z9	X10	Y10	Z10	X11	Y11	Z11	X12	Y12	Z12	X13	Y13	Z13	X14	Y14	Z14	X15	Y15	Z15	X16	Y16	Z16	X17	Y17	Z17	X18	Y18	Z18	X19	Y19	Z19	X20	Y20	Z20	X21	Y21	Z21	X22	Y22	Z22	X23	Y23	Z23	X24	Y24	Z24	X25	Y25	Z25	X26	Y26	Z26	X27	Y27	Z27	X28	Y28	Z28	X29	Y29	Z29	X30	Y30	Z30	X31	Y31	Z31	X32	Y32	Z32	X33	Y33	Z33	X34	Y34	Z34	X35	Y35	Z35	X36	Y36	Z36	X37	Y37	Z37	X38	Y38	Z38	X39	Y39	Z39	X40	Y40	Z40	X41	Y41	Z41	X42	Y42	Z42	X43	Y43	Z43	X44	Y44	Z44	X45	Y45	Z45	X46	Y46	Z46	X47	Y47	Z47	X48	Y48	Z48	
1000	5.0000	801.080016	1210.782516	-65.946512	818.899279	1158.608012	-385.884368	843.086334	1278.645551	-227.536158	788.701096	1119.257075	-212.104689	590.100636	1103.208790	83.687097	691.916567	946.332829	-30.040757	577.766455	1097.829901	-528.533070	676.190329	943.171621	-418.538224	258.744424	1194.788409	-258.187711	411.940749	1102.026061	-405.120352	386.028238	1168.501964	-79.694798	418.511050	1059.287220	-356.142419	407.919645	1113.796336	-102.727445	295.687602	1229.891858	-230.474176	301.426046	1218.154781	-289.466625	351.513079	1103.529931	-32.195142	356.870962	1027.411709	-422.451385	442.513225	1005.771512	-22.415261	513.025411	952.071253	-26.435143	547.945508	871.074475	-29.173226	538.805220	972.355083	-47.438974	571.614706	775.126007	-47.215034	557.117902	754.239296	-158.445996	471.380543	708.163267	-26.069642	402.731075	657.354602	-47.349446	317.274681	640.045596	-48.582990	416.352018	637.888428	-80.166866	234.367500	614.814682	-54.645081	184.383909	655.721499	-106.031310	257.606764	388.600628	-97.967246	207.485669	476.010260	-32.582715	335.756027	905.794144	-438.121569	357.565221	822.318406	-429.328133	393.402996	822.412436	-420.049692	333.465811	736.559378	-419.705155	317.804275	619.737244	-398.268412	323.136310	602.217788	-285.403934	197.748908	267.751616	-374.601374	130.589618	272.590790	-325.280857	285.926453	151.167691	-401.752671	281.678022	516.003415	-415.855457	276.457367	431.584551	-397.474946	227.909328	358.006459	-391.561250	305.365316	426.902487	-370.995529	366.835103	118.919669	-344.175383	-203.947468	865.146278	-212.611759	-50.946084	80.029954	-411.513728	-50.915406	80.359694	-14.073927	
1001	5.0050	799.946559	1211.003840	-63.543139	818.424336	1160.939653	-384.180954	842.145782	1278.720468	-225.247052	787.234143	1119.517072	-209.758543	588.607933	1102.357201	84.230002	691.571009	946.587354	-30.026216	578.714155	1097.181709	-527.645667	678.557288	943.503255	-418.350549	258.256677	1195.016682	-260.071091	413.597398	1101.666463	-403.875935	383.452125	1169.802088	-81.720096	418.581770	1058.771337	-354.738116	405.741378	1115.065273	-104.295234	295.184175	1229.814362	-232.519380	301.348053	1218.165059	-291.402034	350.631134	1105.351570	-33.029551	357.137726	1026.259137	-422.640694	442.833978	1009.640202	-21.817277	515.249675	957.550518	-26.842775	551.438268	877.881526	-27.980774	541.139555	978.058406	-48.611078	577.961036	782.277394	-46.851150	563.877603	760.793864	-158.807354	477.763014	714.855523	-26.152126	410.301582	663.320328	-46.916419	325.118809	645.180233	-48.501877	424.274791	643.733616	-79.828677	241.863881	618.592721	-55.010975	191.073947	658.639112	-106.234922	270.675435	394.471796	-96.935195	217.807968	479.442296	-32.777303	332.800556	905.689749	-437.578391	352.647352	821.530704	-429.428588	388.579153	820.792825	-420.266149	326.682008	736.432342	-419.912276	309.506926	620.072709	-398.717070	313.304073	602.870319	-285.041851	191.553704	267.566594	-374.211763	125.471822	274.334679	-325.005308	276.616053	147.738437	-401.538771	273.646016	515.973231	-415.579283	269.092974	431.379552	-397.524017	221.062376	357.314121	-390.996563	298.334689	426.973437	-371.436098	356.510242	112.688947	-344.078299	-204.028604	865.132503	-212.507245	-50.952392	80.049219	-411.523106	-50.976320	80.622319	-13.833562	
1002	5.0100	798.943963	1210.967786	-61.241229	817.966338	1163.167003	-382.591461	841.235311	1278.602373	-222.932569	785.836620	1119.564698	-207.463407	587.211664	1101.599113	84.649650	691.202280	946.821492	-30.039078	579.617241	1096.521682	-526.839655	681.345856	943.763801	-418.017716	258.103882	1195.499552	-261.795260	415.203928	1101.625388	-402.722412	381.764533	1171.563759	-82.366905	418.680160	1058.545167	-353.506800	405.129785	1117.150120	-104.635547	294.852383	1230.413895	-234.411503	301.622421	1218.380432	-293.212819	350.002050	1107.152524	-33.965692	357.222963	1025.580356	-422.839576	442.322052	1014.583167	-20.708037	517.043895	963.087532	-27.269641	555.713248	884.343138	-26.731601	542.234273	983.946745	-49.487745	583.669900	789.845254	-46.661245	569.772707	766.537084	-159.831591	484.590395	721.070856	-26.233824	417.727562	668.792036	-46.804040	332.550931	649.915683	-48.518105	432.059818	649.228747	-79.499529	249.502854	621.812832	-55.179605	197.680178	660.580809	-106.325210	281.489685	397.048974	-98.351387	228.150716	482.230671	-33.017984	330.617930	905.622598	-436.999687	348.376828	821.151784	-429.450555	384.536340	819.584695	-420.279771	320.698374	736.582852	-420.028624	302.063802	620.652719	-398.458534	305.861569	603.616565	-283.953342	185.790636	268.119659	-373.912055	120.665650	276.863819	-324.743110	267.285719	144.762862	-401.418073	266.163654	516.484018	-415.342280	262.240903	431.815522	-397.572308	214.625741	357.445956	-390.686197	291.658631	427.508033	-371.717176	345.866396	106.925462	-343.895283	-204.115765	865.134105	-212.464657	-50.955633	80.041252	-411.509585	-50.998402	80.664033	-13.792103	
1003	5.0150	797.667693	1210.727722	-59.079332	817.549365	1165.252861	-381.126317	840.351050	1278.299093	-220.646061	784.206215	1119.504804	-205.356737	585.880834	1100.786366	85.045194	690.793286	947.112893	-30.180262	580.505019	1095.920331	-526.078894	684.201470	943.462944	-417.466486	258.127648	1196.260333	-263.224069	416.745476	1101.742193	-401.850751	380.205228	1173.211898	-83.041742	418.784015	1058.446654	-352.633437	404.229836	1119.013088	-105.134576	293.605850	1232.176054	-237.460588	301.891678	1219.061520	-294.707732	349.623272	1109.185386	-34.754479	357.080554	1025.562910	-423.056807	443.030324	1018.832506	-21.757910	519.063783	968.620157	-28.235145	558.737848	890.555208	-25.826973	543.639214	989.779816	-50.422499	588.935254	796.817983	-46.960180	576.376221	773.977358	-159.507812	490.830992	727.229432	-26.158010	424.856090	673.931009	-46.859122	340.032322	653.896202	-48.451078	439.535920	654.283212	-79.428882	256.821543	624.341827	-55.322479	204.069944	661.929018	-106.324866	293.645650	400.315502	-98.683795	238.655471	484.315376	-33.128501	328.187097	906.191317	-437.082260	344.516678	821.125223	-429.390331	380.828351	818.890627	-420.236132	315.416883	737.123592	-420.155024	295.378109	621.574522	-398.104923	299.237688	604.262462	-283.084085	180.433925	269.205135	-373.642900	116.368066	280.024481	-324.461352	257.848676	142.338319	-401.264261	259.311037	517.504843	-415.081551	255.839811	432.744273	-397.581417	208.591529	358.127025	-390.579527	285.471542	428.452464	-371.941918	335.035587	101.706125	-343.965204	-204.216610	865.115543	-212.376716	-50.980580	80.062045	-411.508442	-51.067448	80.735473	-13.751394	
1004	5.0200	796.604469	1210.231524	-57.071002	817.257215	1167.028359	-379.844890	839.531715	1277.752408	-218.454582	782.801015	1119.149789	-203.326865	584.553204	1099.845564	85.412992	690.699574	946.320014	-31.405373	581.367026	1095.474474	-525.375512	686.282740	943.071403	-417.132171	258.146664	1197.475838	-264.487793	417.947293	1101.726436	-400.910043	378.784313	1174.985952	-83.737165	418.390770	1058.214106	-351.733083	403.352896	1120.950757	-105.634395	293.489198	1233.423238	-238.676310	302.184149	1220.182226	-295.979478	349.547686	1111.612128	-35.438666	356.839172	1026.039249	-423.245576	443.723066	1023.218322	-22.739129	520.688730	974.229704	-28.734617	562.304333	897.276049	-27.135514	544.835774	995.876084	-51.171393	593.296661	803.418962	-47.666990	581.419650	780.350460	-160.306874	496.970872	732.981640	-26.552675	431.771145	678.421908	-47.037322	347.146344	657.198036	-48.374288	446.993054	658.053077	-79.473387	263.921137	625.998493	-55.487597	210.311543	662.392190	-106.231956	305.766103	403.074324	-99.045225	248.955691	485.750440	-33.213194	326.546274	906.802298	-437.114346	341.443545	821.401018	-429.413432	377.683149	818.632582	-420.105161	310.941357	738.001532	-420.140199	289.455621	622.797145	-397.678650	292.726874	605.853645	-281.562636	175.532658	270.864392	-373.409066	112.454754	283.822447	-324.284702	248.468753	140.573930	-401.083466	253.148800	519.026062	-414.995170	249.972953	434.143350	-397.629355	202.992775	359.331882	-390.559857	279.677595	429.880199	-372.180728	324.143907	97.196402	-344.247992	-204.283423	865.133840	-212.316851	-50.981080	80.117574	-411.498808	-51.147385	80.911062	-13.768553	
